<mxfile host="app.diagrams.net" modified="2023-08-01T05:00:42.280Z" agent="Mozilla/5.0 (Windows NT 10.0; Win64; x64; rv:102.0) Gecko/20100101 Firefox/102.0" version="21.6.6" etag="jU_PfCkZXJTzOxOErXmi" type="github">
  <diagram name="Page-1" id="6qiIUpb2wleMZOPkTwmS">
    <mxGraphModel>
      <root>
        <mxCell id="0" />
        <mxCell id="1" parent="0" />
      </root>
    </mxGraphModel>
  </diagram>
</mxfile>
